# xmcd CD database file
#
# Track frame offsets:
#	150
#	21479
#	46636
#	66616
#	81804
#	101424
#	112814
#	130829
#	157891
#	172413
#	184855
#
# Disc length: 2813 seconds
#
# Revision: 0
# Processed by: cddbd v1.5.2PL0 Copyright (c) Steve Scherf et al.
# Submitted via: CDex 1.51
#
DISCID=8f0afb0b
DTITLE=Maurílio Ribeiro - Carreador
DYEAR=2007
DGENRE=Jazz
TTITLE0=Consciência Negra
TTITLE1=Fé
TTITLE2=Choro pro Mateus
TTITLE3=Carreador
TTITLE4=Aromática
TTITLE5=Beijo Partido
TTITLE6=Baião pro Hermeto
TTITLE7=Anu Preto
TTITLE8=Dádiva
TTITLE9=Choro de Guitarra
TTITLE10=Baía de Antonina
EXTD=YEAR: 2007
EXTT0=
EXTT1=
EXTT2=
EXTT3=
EXTT4=
EXTT5=
EXTT6=
EXTT7=
EXTT8=
EXTT9=
EXTT10=
PLAYORDER=
